<?xml version="1.0" encoding="UTF-8"?>
<svg xmlns="http://www.w3.org/2000/svg" version="1.1" viewBox="0 0 208.97 57">
  <defs>
    <style>
      .cls-1 {
        fill: #fff;
      }

      .cls-2 {
        fill: #ed1c24;
      }

      .cls-3 {
        fill: #fff200;
      }
    </style>
  </defs>
  <!-- Generator: Adobe Illustrator 28.7.1, SVG Export Plug-In . SVG Version: 1.2.0 Build 142)  -->
  <g>
    <g id="Layer_1">
      <path class="cls-2" d="M50.8,57s-1.75,0-3.5,0h-3.5C41.3,38.5,41.3,19.5,43.8,0h7s0,1.58-.02,4.21c-1.48,16.29-1.48,32.29,0,48.55.02,2.65.02,4.23.02,4.23Z"/>
      <path class="cls-2" d="M41.92,57h-7C32.42,38.5,32.42,19.5,34.92,0h7s0,1.58-.02,4.21c-1.48,16.29-1.48,32.29,0,48.55.02,2.65.02,4.23.02,4.23Z"/>
      <path class="cls-2" d="M33.05,57h-7C23.55,38.5,23.55,19.5,26.05,0h7s0,1.58-.02,4.21c-1.48,16.29-1.48,32.29,0,48.55.02,2.65.02,4.23.02,4.23Z"/>
      <path class="cls-2" d="M24.17,57h-7C14.67,38.5,14.67,19.5,17.17,0h7s0,1.58-.02,4.21c-1.48,16.29-1.48,32.29,0,48.55.02,2.65.02,4.23.02,4.23Z"/>
      <path class="cls-2" d="M15.3,57h-7C5.8,38.5,5.8,19.5,8.3,0h7s0,1.58-.02,4.21c-1.48,16.29-1.48,32.29,0,48.55.02,2.65.02,4.23.02,4.23Z"/>
      <path class="cls-2" d="M158.18,57h3.5c1.75,0,3.5,0,3.5,0C167.68,38.5,167.68,19.5,165.18,0h-3.5c-1.75,0-3.5,0-3.5,0,0,0,0,1.58.02,4.21,1.48,16.29,1.48,32.29,0,48.55-.02,2.65-.02,4.23-.02,4.23Z"/>
      <path class="cls-2" d="M167.05,57h3.5c1.75,0,3.5,0,3.5,0C176.55,38.5,176.55,19.5,174.05,0h-3.5c-1.75,0-3.5,0-3.5,0,0,0,0,1.58.02,4.21,1.48,16.29,1.48,32.29,0,48.55-.02,2.65-.02,4.23-.02,4.23Z"/>
      <path class="cls-2" d="M175.93,57h3.5c1.75,0,3.5,0,3.5,0C185.43,38.5,185.43,19.5,182.93,0h-3.5c-1.75,0-3.5,0-3.5,0,0,0,0,1.58.02,4.21,1.48,16.29,1.48,32.29,0,48.55-.02,2.65-.02,4.23-.02,4.23Z"/>
      <path class="cls-2" d="M184.8,57h3.5c1.75,0,3.5,0,3.5,0C194.3,38.5,194.3,19.5,191.8,0h-3.5c-1.75,0-3.5,0-3.5,0,0,0,0,1.58.02,4.21,1.48,16.29,1.48,32.29,0,48.55-.02,2.65-.02,4.23-.02,4.23Z"/>
      <path class="cls-2" d="M193.68,57h3.5c1.75,0,3.5,0,3.5,0C203.18,38.5,203.18,19.5,200.68,0h-3.5c-1.75,0-3.5,0-3.5,0,0,0,0,1.58.02,4.21,1.48,16.29,1.48,32.29,0,48.55-.02,2.65-.02,4.23-.02,4.23Z"/>
      <path class="cls-3" d="M6.42,49.12H1.35c-1.81-13.38-1.81-27.13,0-41.24h5.06s0,1.15-.02,3.05c-1.07,11.78-1.07,23.36,0,35.12.01,1.92.01,3.06.01,3.06Z"/>
      <path class="cls-3" d="M202.55,49.12h2.53c1.27,0,2.54,0,2.54,0,1.81-13.38,1.81-27.13,0-41.24h-2.53c-1.27,0-2.53,0-2.53,0,0,0,0,1.15.02,3.05,1.07,11.78,1.07,23.36,0,35.12-.01,1.92-.01,3.06-.01,3.06Z"/>
      <g>
        <path class="cls-1" d="M62.41,23.01c.08.55-.49.91-1.72,1.11-2.1.34-4.2.7-6.3,1.08-1.2.22-1.84.06-1.95-.48-.46-2.43-.93-4.86-1.39-7.28-.1-.55.46-.94,1.69-1.17,2.17-.4,4.34-.77,6.51-1.12,1.27-.2,1.95-.02,2.04.53.11.7.21,1.4.32,2.1-1.03.16-2.05.32-3.08.49-.1-.59-.19-1.18-.29-1.77-1.34.22-2.68.45-4.03.69.4,2.21.79,4.43,1.19,6.64,1.31-.23,2.62-.46,3.93-.68-.1-.63-.21-1.26-.31-1.88,1.02-.17,2.03-.33,3.05-.48.11.74.23,1.48.34,2.22Z"/>
        <path class="cls-1" d="M75.08,21.36c.06.55-.53.89-1.76,1.03-2.2.25-4.4.53-6.59.83-1.2.17-1.84-.02-1.92-.57-.35-2.45-.71-4.89-1.06-7.34-.08-.55.5-.92,1.74-1.09,2.27-.31,4.54-.6,6.81-.86,1.27-.14,1.94.07,2,.62.26,2.46.52,4.92.79,7.37ZM71.99,21.37c-.26-2.23-.53-4.47-.79-6.7-1.43.17-2.86.35-4.29.54.3,2.23.59,4.46.89,6.69,1.39-.19,2.79-.36,4.18-.53Z"/>
        <path class="cls-1" d="M85.62,21.27c-2.67.18-5.34.41-8.01.67-.29-3.01-.59-6.02-.88-9.04,1.05-.1,2.1-.2,3.15-.29.23,2.61.45,5.23.68,7.84,1.66-.14,3.32-.27,4.99-.39.03.4.06.81.08,1.21Z"/>
        <path class="cls-1" d="M95.46,20.77c-2.68.09-5.35.22-8.02.38-.19-3.02-.38-6.04-.56-9.06,1.05-.07,2.1-.12,3.15-.18.13,2.62.27,5.24.4,7.86,1.66-.09,3.33-.16,4.99-.21.01.4.03.81.04,1.21Z"/>
        <path class="cls-1" d="M105.75,20.62c-2.83-.01-5.65.02-8.47.1-.08-3.03-.16-6.05-.24-9.08,2.89-.08,5.78-.11,8.67-.1,0,.4,0,.8,0,1.2-1.83,0-3.66,0-5.49.03.01.88.03,1.77.04,2.65,1.56-.02,3.12-.04,4.68-.03,0,.39,0,.79,0,1.18-1.55,0-3.11.01-4.66.03.01.95.03,1.9.04,2.85,1.81-.03,3.63-.04,5.44-.03,0,.4,0,.8,0,1.2Z"/>
        <path class="cls-1" d="M117.98,20.11c-.03.55-.66.8-1.91.75-2.14-.09-4.28-.15-6.42-.19-1.21-.02-1.81-.3-1.81-.86.03-2.47.06-4.94.08-7.41,0-.56.65-.83,1.92-.81,2.2.04,4.4.1,6.59.19,1.29.05,1.91.36,1.89.92-.03.65-.06,1.29-.09,1.94-1.05-.05-2.09-.09-3.14-.13.02-.54.04-1.07.06-1.61-1.36-.05-2.73-.09-4.09-.12-.05,2.25-.1,4.5-.15,6.75,1.33.03,2.67.07,4,.12.03-.85.06-1.69.09-2.54-.77-.03-1.53-.05-2.3-.08.01-.38.02-.77.03-1.15,1.81.05,3.62.12,5.43.21-.06,1.34-.13,2.69-.19,4.03Z"/>
        <path class="cls-1" d="M123.48,21.25c-1.02-.07-2.03-.13-3.05-.19.17-3.02.34-6.04.52-9.07,1.05.06,2.1.13,3.15.2-.2,3.02-.41,6.04-.61,9.06Z"/>
        <path class="cls-1" d="M136.31,22.42c-1.01-.12-2.01-.22-3.02-.33-.14-.59-.29-1.18-.44-1.78-1.28-.13-2.56-.25-3.84-.36-.26.55-.51,1.11-.76,1.66-1-.09-2.01-.17-3.01-.24,0,0,0-.02,0-.02,1.54-2.92,3.12-5.82,4.75-8.71,1.1.1,2.2.2,3.31.31,1.05,3.15,2.05,6.31,3.01,9.47ZM132.53,19.11c-.36-1.41-.74-2.82-1.11-4.22-.64,1.31-1.27,2.62-1.9,3.94,1,.09,2.01.18,3.01.28Z"/>
        <path class="cls-1" d="M148.02,16.04c-1.14-.18-2.29-.34-3.44-.51-.37,2.6-.73,5.2-1.1,7.8-1.01-.14-2.01-.28-3.02-.41.34-2.6.68-5.21,1.01-7.81-1.15-.15-2.3-.29-3.45-.43.05-.4.09-.8.14-1.19,3.35.39,6.69.85,10.03,1.36-.06.4-.12.79-.18,1.19Z"/>
        <path class="cls-1" d="M156.74,25.54c-2.79-.53-5.58-1.02-8.38-1.47.48-2.99.95-5.98,1.43-8.97,2.86.46,5.72.96,8.57,1.5-.07.39-.15.79-.22,1.18-1.81-.34-3.62-.67-5.43-.98-.15.87-.3,1.74-.45,2.61,1.54.26,3.09.54,4.63.83-.07.39-.14.77-.22,1.16-1.53-.29-3.07-.56-4.61-.83-.16.94-.32,1.87-.48,2.81,1.79.31,3.59.63,5.38.97-.08.39-.15.79-.23,1.18Z"/>
      </g>
      <path class="cls-3" d="M6.42,49.12H1.35c-1.81-13.38-1.81-27.13,0-41.24h5.06s0,1.15-.02,3.05c-1.07,11.78-1.07,23.36,0,35.12.01,1.92.01,3.06.01,3.06Z"/>
      <g>
        <path class="cls-1" d="M65.89,38.82c.1.67-.51,1.11-1.82,1.31-2.18.34-4.35.71-6.52,1.11-1.3.24-2.01.03-2.14-.64-.17-.87-.33-1.75-.5-2.62,1.09-.21,2.18-.41,3.28-.6.13.75.27,1.5.4,2.25,1.32-.24,2.65-.46,3.98-.68-.12-.72-.23-1.44-.35-2.17-2.36-.69-4.75-1.35-7.16-1.97-.52-.14-.82-.38-.89-.74-.16-.81-.31-1.63-.47-2.44-.13-.67.48-1.14,1.84-1.39,2.26-.41,4.53-.8,6.8-1.15,1.37-.21,2.1.02,2.2.69.12.83.25,1.65.37,2.48-1.11.17-2.23.34-3.34.52-.11-.69-.22-1.39-.34-2.08-1.37.22-2.74.45-4.11.7.12.66.24,1.33.35,1.99,2.41.64,4.8,1.32,7.16,2.02.51.15.8.42.85.79.13.88.26,1.76.39,2.64Z"/>
        <path class="cls-1" d="M77.1,28.66c-1.24.13-2.48.26-3.73.41.37,3.22.74,6.43,1.12,9.65-1.08.13-2.16.26-3.24.4-.41-3.21-.82-6.42-1.24-9.63-1.24.16-2.48.33-3.72.5-.07-.49-.14-.98-.21-1.47,3.61-.52,7.23-.96,10.86-1.33.05.49.1.98.15,1.47Z"/>
        <path class="cls-1" d="M90.92,37.33c-1.14.06-2.27.13-3.41.2-1.31-1.65-2.65-3.29-4.01-4.92-.03-.34-.05-.67-.08-1.01,1.09-.09,2.19-.17,3.29-.24-.08-1.18-.16-2.36-.24-3.54-1.42.09-2.85.2-4.27.32.27,3.24.54,6.48.8,9.72-1.09.09-2.18.19-3.26.29-.35-3.71-.71-7.43-1.06-11.14,3.01-.29,6.02-.52,9.04-.71,1.37-.08,2.07.22,2.11.91.07,1.35.15,2.71.22,4.06.03.47-.28.79-.9.97-.34.09-1.06.17-2.16.24,1.34,1.61,2.65,3.22,3.94,4.85Z"/>
        <path class="cls-1" d="M101.99,36.99c-3.03.03-6.05.11-9.07.24-.17-3.73-.33-7.45-.5-11.18,3.12-.14,6.25-.22,9.37-.25,0,.49,0,.99.01,1.48-1.98.02-3.95.06-5.93.12.03,1.09.07,2.18.1,3.27,1.68-.05,3.36-.09,5.04-.11,0,.48.01.97.02,1.45-1.67.02-3.34.06-5.02.11.04,1.17.07,2.34.11,3.51,1.94-.06,3.89-.1,5.84-.12,0,.49,0,.99.01,1.48Z"/>
        <path class="cls-1" d="M115.31,37.2c-.95-.04-1.91-.07-2.86-.1-1.68-2.4-3.4-4.78-5.17-7.15.14.35.21.62.21.81-.02,2.08-.05,4.16-.07,6.23-1.06-.01-2.13-.02-3.19-.02,0-3.73,0-7.46-.01-11.19,1,0,1.99,0,2.99.01,1.8,2.32,3.55,4.66,5.26,7.01-.13-.35-.2-.62-.19-.81.06-2.03.12-4.06.18-6.09,1.11.03,2.22.07,3.32.12-.15,3.73-.31,7.45-.46,11.18Z"/>
        <path class="cls-1" d="M128.83,37.09c-.06.68-.76.95-2.09.84-2.29-.2-4.58-.36-6.87-.5-1.29-.08-1.92-.45-1.89-1.13.16-3.04.31-6.08.47-9.13.03-.69.74-1,2.12-.91,2.37.14,4.75.31,7.12.52,1.39.12,2.05.53,1.98,1.21-.07.79-.15,1.58-.22,2.38-1.12-.11-2.25-.2-3.37-.29.05-.66.11-1.32.16-1.97-1.47-.12-2.94-.23-4.42-.32-.18,2.77-.36,5.53-.53,8.3,1.43.09,2.85.2,4.28.31.08-1.04.17-2.08.25-3.12-.82-.07-1.65-.13-2.47-.19.03-.47.07-.95.1-1.42,1.95.14,3.89.3,5.84.48-.15,1.65-.31,3.3-.46,4.95Z"/>
        <path class="cls-1" d="M142.15,29.9c-1.24-.17-2.48-.34-3.72-.5-.41,3.21-.81,6.42-1.22,9.63-1.08-.14-2.16-.27-3.24-.39.37-3.22.73-6.43,1.1-9.65-1.24-.14-2.48-.27-3.73-.4.05-.49.1-.98.15-1.47,3.63.36,7.25.8,10.86,1.31-.07.49-.14.98-.21,1.47Z"/>
        <path class="cls-1" d="M153.34,41.6c-1.09-.21-2.17-.41-3.26-.6.29-1.65.59-3.29.88-4.94-1.49-.26-2.98-.52-4.47-.75-.26,1.65-.53,3.3-.79,4.96-1.08-.17-2.16-.34-3.24-.5.54-3.69,1.09-7.38,1.63-11.07,1.13.17,2.26.34,3.38.52-.24,1.52-.49,3.04-.73,4.55,1.5.24,3,.49,4.5.76.27-1.51.54-3.03.81-4.54,1.13.2,2.27.41,3.4.63-.7,3.66-1.4,7.33-2.1,10.99Z"/>
      </g>
    </g>
  </g>
</svg>