<?xml version="1.0" encoding="UTF-8"?>
<svg xmlns="http://www.w3.org/2000/svg" version="1.1" viewBox="0 0 209 57">
  <defs>
    <style>
      .cls-1 {
        fill: #fff200;
      }

      .cls-2 {
        fill: #ed1c24;
      }

      .cls-3 {
        fill: #19130a;
      }
    </style>
  </defs>
  <!-- Generator: Adobe Illustrator 28.7.1, SVG Export Plug-In . SVG Version: 1.2.0 Build 142)  -->
  <g>
    <g id="Layer_1">
      <path class="cls-2" d="M50.8,57h-7c-2.5-18.5-2.5-37.5,0-57h7s0,1.6,0,4.2c-1.5,16.3-1.5,32.3,0,48.5,0,2.7,0,4.2,0,4.2h0Z"/>
      <path class="cls-2" d="M41.9,57h-7c-2.5-18.5-2.5-37.5,0-57h7s0,1.6,0,4.2c-1.5,16.3-1.5,32.3,0,48.5,0,2.7,0,4.2,0,4.2h0Z"/>
      <path class="cls-2" d="M33,57h-7c-2.5-18.5-2.5-37.5,0-57h7s0,1.6,0,4.2c-1.5,16.3-1.5,32.3,0,48.5,0,2.7,0,4.2,0,4.2h0Z"/>
      <path class="cls-2" d="M24.2,57h-7c-2.5-18.5-2.5-37.5,0-57h7s0,1.6,0,4.2c-1.5,16.3-1.5,32.3,0,48.5,0,2.7,0,4.2,0,4.2h0Z"/>
      <path class="cls-2" d="M15.3,57h-7c-2.5-18.5-2.5-37.5,0-57h7s0,1.6,0,4.2c-1.5,16.3-1.5,32.3,0,48.5,0,2.7,0,4.2,0,4.2h0Z"/>
      <path class="cls-2" d="M158.2,57h7c2.5-18.5,2.5-37.5,0-57h-7s0,1.6,0,4.2c1.5,16.3,1.5,32.3,0,48.5,0,2.7,0,4.2,0,4.2h0Z"/>
      <path class="cls-2" d="M167.1,57h7c2.5-18.5,2.5-37.5,0-57h-7s0,1.6,0,4.2c1.5,16.3,1.5,32.3,0,48.5,0,2.7,0,4.2,0,4.2h0Z"/>
      <path class="cls-2" d="M175.9,57h7c2.5-18.5,2.5-37.5,0-57h-7s0,1.6,0,4.2c1.5,16.3,1.5,32.3,0,48.5,0,2.7,0,4.2,0,4.2h0Z"/>
      <path class="cls-2" d="M184.8,57h7c2.5-18.5,2.5-37.5,0-57h-7s0,1.6,0,4.2c1.5,16.3,1.5,32.3,0,48.5,0,2.7,0,4.2,0,4.2h0Z"/>
      <path class="cls-2" d="M193.7,57h7c2.5-18.5,2.5-37.5,0-57h-7s0,1.6,0,4.2c1.5,16.3,1.5,32.3,0,48.5,0,2.7,0,4.2,0,4.2h0Z"/>
      <path class="cls-1" d="M6.4,49.1H1.4C-.5,35.7-.5,22,1.4,7.9h5.1s0,1.1,0,3.1c-1.1,11.8-1.1,23.4,0,35.1,0,1.9,0,3.1,0,3.1h0Z"/>
      <path class="cls-1" d="M202.6,49.1h5.1c1.8-13.4,1.8-27.1,0-41.2h-5.1s0,1.1,0,3.1c1.1,11.8,1.1,23.4,0,35.1,0,1.9,0,3.1,0,3.1h0Z"/>
      <g>
        <path class="cls-3" d="M62.4,23c0,.5-.5.9-1.7,1.1-2.1.3-4.2.7-6.3,1.1-1.2.2-1.8,0-2-.5-.5-2.4-.9-4.9-1.4-7.3,0-.5.5-.9,1.7-1.2,2.2-.4,4.3-.8,6.5-1.1,1.3-.2,2,0,2,.5.1.7.2,1.4.3,2.1-1,.2-2,.3-3.1.5,0-.6-.2-1.2-.3-1.8-1.3.2-2.7.5-4,.7.4,2.2.8,4.4,1.2,6.6,1.3-.2,2.6-.5,3.9-.7,0-.6-.2-1.3-.3-1.9,1-.2,2-.3,3-.5.1.7.2,1.5.3,2.2Z"/>
        <path class="cls-3" d="M75.1,21.4c0,.5-.5.9-1.8,1-2.2.2-4.4.5-6.6.8-1.2.2-1.8,0-1.9-.6-.3-2.5-.7-4.9-1.1-7.3,0-.6.5-.9,1.7-1.1,2.3-.3,4.5-.6,6.8-.9,1.3-.1,1.9,0,2,.6.3,2.5.5,4.9.8,7.4h0ZM72,21.4c-.3-2.2-.5-4.5-.8-6.7-1.4.2-2.9.4-4.3.5.3,2.2.6,4.5.9,6.7,1.4-.2,2.8-.4,4.2-.5h0Z"/>
        <path class="cls-3" d="M85.6,21.3c-2.7.2-5.3.4-8,.7-.3-3-.6-6-.9-9,1.1-.1,2.1-.2,3.2-.3.2,2.6.4,5.2.7,7.8,1.7-.1,3.3-.3,5-.4,0,.4,0,.8,0,1.2h0Z"/>
        <path class="cls-3" d="M95.5,20.8c-2.7,0-5.3.2-8,.4-.2-3-.4-6-.6-9.1,1.1,0,2.1-.1,3.2-.2.1,2.6.3,5.2.4,7.9,1.7,0,3.3-.2,5-.2,0,.4,0,.8,0,1.2Z"/>
        <path class="cls-3" d="M105.8,20.6c-2.8,0-5.7,0-8.5.1,0-3-.2-6.1-.2-9.1,2.9,0,5.8-.1,8.7-.1v1.2c-1.8,0-3.7,0-5.5,0,0,.9,0,1.8,0,2.6,1.6,0,3.1,0,4.7,0v1.2c-1.6,0-3.1,0-4.7,0,0,1,0,1.9,0,2.9,1.8,0,3.6,0,5.4,0v1.2h0Z"/>
        <path class="cls-3" d="M118,20.1c0,.5-.7.8-1.9.8-2.1,0-4.3-.1-6.4-.2-1.2,0-1.8-.3-1.8-.9,0-2.5,0-4.9,0-7.4,0-.6.7-.8,1.9-.8,2.2,0,4.4.1,6.6.2,1.3,0,1.9.4,1.9.9,0,.6,0,1.3,0,1.9-1.1,0-2.1,0-3.1-.1,0-.5,0-1.1,0-1.6-1.4,0-2.7,0-4.1-.1,0,2.2,0,4.5-.2,6.7,1.3,0,2.7,0,4,.1,0-.9,0-1.7,0-2.5-.8,0-1.5,0-2.3,0,0-.4,0-.8,0-1.1,1.8,0,3.6.1,5.4.2,0,1.3-.1,2.7-.2,4h0Z"/>
        <path class="cls-3" d="M123.5,21.2c-1,0-2-.1-3.1-.2.2-3,.3-6,.5-9.1,1.1,0,2.1.1,3.2.2-.2,3-.4,6-.6,9.1h0Z"/>
        <path class="cls-3" d="M136.3,22.4c-1-.1-2-.2-3-.3-.1-.6-.3-1.2-.4-1.8-1.3-.1-2.6-.2-3.8-.4-.3.5-.5,1.1-.8,1.7-1,0-2-.2-3-.2h0c1.5-2.9,3.1-5.8,4.7-8.7,1.1.1,2.2.2,3.3.3,1.1,3.1,2.1,6.3,3,9.5h0ZM132.5,19.1c-.4-1.4-.7-2.8-1.1-4.2-.6,1.3-1.3,2.6-1.9,3.9,1,0,2,.2,3,.3Z"/>
        <path class="cls-3" d="M148,16c-1.1-.2-2.3-.3-3.4-.5-.4,2.6-.7,5.2-1.1,7.8-1-.1-2-.3-3-.4.3-2.6.7-5.2,1-7.8-1.1-.1-2.3-.3-3.4-.4,0-.4,0-.8.1-1.2,3.4.4,6.7.9,10,1.4,0,.4-.1.8-.2,1.2h0Z"/>
        <path class="cls-3" d="M156.7,25.5c-2.8-.5-5.6-1-8.4-1.5.5-3,.9-6,1.4-9,2.9.5,5.7,1,8.6,1.5,0,.4-.1.8-.2,1.2-1.8-.3-3.6-.7-5.4-1-.1.9-.3,1.7-.4,2.6,1.5.3,3.1.5,4.6.8,0,.4-.1.8-.2,1.2-1.5-.3-3.1-.6-4.6-.8-.2.9-.3,1.9-.5,2.8,1.8.3,3.6.6,5.4,1,0,.4-.1.8-.2,1.2h0Z"/>
      </g>
      <path class="cls-1" d="M6.4,49.1H1.4C-.5,35.7-.5,22,1.4,7.9h5.1s0,1.1,0,3.1c-1.1,11.8-1.1,23.4,0,35.1,0,1.9,0,3.1,0,3.1h0Z"/>
      <g>
        <path class="cls-3" d="M65.9,38.8c0,.7-.5,1.1-1.8,1.3-2.2.3-4.3.7-6.5,1.1-1.3.2-2,0-2.1-.6-.2-.9-.3-1.8-.5-2.6,1.1-.2,2.2-.4,3.3-.6.1.8.3,1.5.4,2.2,1.3-.2,2.7-.5,4-.7-.1-.7-.2-1.4-.3-2.2-2.4-.7-4.8-1.3-7.2-2-.5-.1-.8-.4-.9-.7-.2-.8-.3-1.6-.5-2.4-.1-.7.5-1.1,1.8-1.4,2.3-.4,4.5-.8,6.8-1.1,1.4-.2,2.1,0,2.2.7.1.8.2,1.6.4,2.5-1.1.2-2.2.3-3.3.5-.1-.7-.2-1.4-.3-2.1-1.4.2-2.7.5-4.1.7.1.7.2,1.3.3,2,2.4.6,4.8,1.3,7.2,2,.5.2.8.4.8.8.1.9.3,1.8.4,2.6h0Z"/>
        <path class="cls-3" d="M77.1,28.7c-1.2.1-2.5.3-3.7.4.4,3.2.7,6.4,1.1,9.7-1.1.1-2.2.3-3.2.4-.4-3.2-.8-6.4-1.2-9.6-1.2.2-2.5.3-3.7.5l-.2-1.5c3.6-.5,7.2-1,10.9-1.3,0,.5,0,1,.2,1.5h0Z"/>
        <path class="cls-3" d="M90.9,37.3c-1.1,0-2.3.1-3.4.2-1.3-1.7-2.7-3.3-4-4.9,0-.3,0-.7,0-1,1.1,0,2.2-.2,3.3-.2,0-1.2-.2-2.4-.2-3.5-1.4,0-2.8.2-4.3.3.3,3.2.5,6.5.8,9.7-1.1,0-2.2.2-3.3.3-.3-3.7-.7-7.4-1.1-11.1,3-.3,6-.5,9-.7,1.4,0,2.1.2,2.1.9,0,1.4.2,2.7.2,4.1,0,.5-.3.8-.9,1-.3,0-1.1.2-2.2.2,1.3,1.6,2.7,3.2,3.9,4.8h0Z"/>
        <path class="cls-3" d="M102,37c-3,0-6.1.1-9.1.2-.2-3.7-.3-7.5-.5-11.2,3.1-.1,6.2-.2,9.4-.2,0,.5,0,1,0,1.5-2,0-3.9,0-5.9.1,0,1.1,0,2.2,0,3.3,1.7,0,3.4,0,5-.1,0,.5,0,1,0,1.4-1.7,0-3.3,0-5,.1,0,1.2,0,2.3.1,3.5,1.9,0,3.9,0,5.8-.1,0,.5,0,1,0,1.5h0Z"/>
        <path class="cls-3" d="M115.3,37.2c-.9,0-1.9,0-2.9,0-1.7-2.4-3.4-4.8-5.2-7.1.1.4.2.6.2.8,0,2.1,0,4.2,0,6.2-1.1,0-2.1,0-3.2,0,0-3.7,0-7.5,0-11.2,1,0,2,0,3,0,1.8,2.3,3.6,4.7,5.3,7-.1-.3-.2-.6-.2-.8,0-2,.1-4.1.2-6.1,1.1,0,2.2,0,3.3.1-.2,3.7-.3,7.5-.5,11.2h0Z"/>
        <path class="cls-3" d="M128.8,37.1c0,.7-.8,1-2.1.8-2.3-.2-4.6-.4-6.9-.5-1.3,0-1.9-.5-1.9-1.1.2-3,.3-6.1.5-9.1,0-.7.7-1,2.1-.9,2.4.1,4.8.3,7.1.5,1.4.1,2,.5,2,1.2,0,.8-.1,1.6-.2,2.4-1.1-.1-2.2-.2-3.4-.3,0-.7.1-1.3.2-2-1.5-.1-2.9-.2-4.4-.3-.2,2.8-.4,5.5-.5,8.3,1.4,0,2.8.2,4.3.3,0-1,.2-2.1.2-3.1-.8,0-1.7-.1-2.5-.2,0-.5,0-1,0-1.4,1.9.1,3.9.3,5.8.5-.1,1.7-.3,3.3-.5,5h0Z"/>
        <path class="cls-3" d="M142.1,29.9c-1.2-.2-2.5-.3-3.7-.5-.4,3.2-.8,6.4-1.2,9.6-1.1-.1-2.2-.3-3.2-.4.4-3.2.7-6.4,1.1-9.6-1.2-.1-2.5-.3-3.7-.4,0-.5.1-1,.1-1.5,3.6.4,7.2.8,10.9,1.3,0,.5-.1,1-.2,1.5h0Z"/>
        <path class="cls-3" d="M153.3,41.6c-1.1-.2-2.2-.4-3.3-.6.3-1.7.6-3.3.9-4.9-1.5-.3-3-.5-4.5-.8-.3,1.7-.5,3.3-.8,5-1.1-.2-2.2-.3-3.2-.5.5-3.7,1.1-7.4,1.6-11.1,1.1.2,2.3.3,3.4.5-.2,1.5-.5,3-.7,4.5,1.5.2,3,.5,4.5.8.3-1.5.5-3,.8-4.5,1.1.2,2.3.4,3.4.6-.7,3.7-1.4,7.3-2.1,11h0Z"/>
      </g>
    </g>
  </g>
</svg>